<?xml version="1.0" encoding="UTF-8"?>
<svg width="190px" height="21px" viewBox="0 0 190 21" version="1.1" xmlns="http://www.w3.org/2000/svg" xmlns:xlink="http://www.w3.org/1999/xlink">
    <!-- Generator: Sketch 49.3 (51167) - http://www.bohemiancoding.com/sketch -->
    <title>logo</title>
    <desc>Created with Sketch.</desc>
    <defs>
        <linearGradient x1="50%" y1="0%" x2="23.1800426%" y2="100%" id="linearGradient-1">
            <stop stop-color="#CC6D3C" offset="0%"></stop>
            <stop stop-color="#B55A5C" offset="100%"></stop>
        </linearGradient>
    </defs>
    <g id="Assets" stroke="none" stroke-width="1" fill="none" fill-rule="evenodd">
        <g id="logo">
            <path d="M5.90909091,17.1305811 L12.1588215,7.40877793 C12.4574737,6.94420789 13.0761875,6.80970488 13.5407576,7.10835705 C13.6612602,7.18582304 13.7637125,7.28827528 13.8411785,7.40877793 L15.3773585,9.79839129 L21.1497349,0.473783318 C21.4404325,0.00419484379 22.0567661,-0.140824841 22.5263546,0.149872786 C22.6579329,0.231326021 22.7688119,0.342205014 22.8502651,0.473783318 L30.8947368,13.4686991 L32.2525907,11.9411136 C32.6195087,11.5283308 33.2515811,11.4911501 33.6643638,11.8580681 C33.6936487,11.8840991 33.7213783,11.9118287 33.7474093,11.9411136 L38.3333333,17.1002781 L39,17.1002781 L43.3713907,18.8488344 C43.7510491,19.0006977 44,19.3684065 44,19.777311 L44,20.1002781 L0,20.1002781 L2.22044605e-16,19.8210373 C-2.1817417e-17,19.3906069 0.275430095,19.008468 0.683772234,18.872354 L5.90909091,17.1305811 Z" id="Combined-Shape" fill="url(#linearGradient-1)"></path>
            <g id="Group" transform="translate(50.000000, 0.100278)" fill="#2B2B2B">
                <path d="M7.5765,3.8 L5.4975,3.8 L5.4975,19.784 C5.4975,19.946 5.4165,20 5.3085,20 L2.8515,20 C2.7165,20 2.6355,19.865 2.6355,19.784 L2.6355,3.8 L0.5835,3.8 C0.4215,3.8 0.3675,3.692 0.3675,3.611 L0.3675,1.316 C0.3675,1.181 0.4485,1.1 0.5835,1.1 L7.5765,1.1 C7.6845,1.1 7.7925,1.181 7.7925,1.316 L7.7925,3.611 C7.7925,3.746 7.6845,3.8 7.5765,3.8 Z M16.9995,20 L14.5695,20 C14.4075,20 14.3535,19.865 14.3535,19.784 L14.3535,11.765 L11.8695,11.765 L11.8695,19.784 C11.8695,19.946 11.7885,20 11.6535,20 L9.2235,20 C9.0615,20 9.0075,19.865 9.0075,19.784 L9.0075,1.316 C9.0075,1.181 9.0885,1.1 9.2235,1.1 L11.6535,1.1 C11.7885,1.1 11.8695,1.181 11.8695,1.316 L11.8695,9.038 L14.3535,9.038 L14.3535,1.316 C14.3535,1.181 14.4345,1.1 14.5695,1.1 L16.9995,1.1 C17.1345,1.1 17.2155,1.181 17.2155,1.316 L17.2155,19.784 C17.2155,19.946 17.1345,20 16.9995,20 Z M24.8835,20 L19.8615,20 C19.6995,20 19.6455,19.865 19.6455,19.784 L19.6455,1.316 C19.6455,1.181 19.7265,1.1 19.8615,1.1 L24.8835,1.1 C24.9915,1.1 25.0995,1.181 25.0995,1.316 L25.0995,3.611 C25.0995,3.746 24.9915,3.8 24.8835,3.8 L22.5075,3.8 L22.5075,9.038 L24.8835,9.038 C24.9915,9.038 25.0995,9.119 25.0995,9.254 L25.0995,11.549 C25.0995,11.711 24.9915,11.765 24.8835,11.765 L22.5075,11.765 L22.5075,17.273 L24.8835,17.273 C24.9915,17.273 25.0995,17.354 25.0995,17.462 L25.0995,19.784 C25.0995,19.946 24.9915,20 24.8835,20 Z M36.4665,11.765 L34.1715,11.765 L34.1715,19.784 C34.1715,19.946 34.0905,20 33.9555,20 L31.5255,20 C31.3635,20 31.3095,19.865 31.3095,19.784 L31.3095,1.316 C31.3095,1.181 31.3905,1.1 31.5255,1.1 L36.5475,1.1 C36.6555,1.1 36.7635,1.181 36.7635,1.316 L36.7635,3.611 C36.7635,3.746 36.6555,3.8 36.5475,3.8 L34.1715,3.8 L34.1715,9.038 L36.4665,9.038 C36.5745,9.038 36.6825,9.119 36.6825,9.254 L36.6825,11.549 C36.6825,11.711 36.5745,11.765 36.4665,11.765 Z M40.5165,1.1 L43.2975,1.1 C43.4595,1.1 43.5135,1.235 43.5135,1.316 L46.5645,19.784 C46.5645,19.919 46.4835,20 46.3485,20 L43.8105,20 C43.7025,20 43.5945,19.919 43.5945,19.784 L42.9735,15.275 L40.7325,15.275 L40.0575,19.784 C40.0575,19.919 39.9765,20 39.8415,20 L37.3035,20 C37.1685,20 37.0875,19.919 37.0875,19.784 L40.3005,1.316 C40.3005,1.235 40.3545,1.1 40.5165,1.1 Z M41.9205,7.364 L41.1375,12.575 L42.6225,12.575 L41.9205,7.364 Z M55.6365,20 L52.9365,20 C52.7745,20 52.7205,19.865 52.7205,19.784 L50.6415,12.332 L50.6415,19.784 C50.6415,19.946 50.5605,20 50.4255,20 L47.9955,20 C47.8335,20 47.7795,19.865 47.7795,19.784 L47.7795,1.316 C47.7795,1.181 47.8605,1.1 47.9955,1.1 L52.8555,1.1 C54.8535,1.1 55.5825,2.072 55.5825,3.719 L55.5825,9.254 C55.5825,10.766 55.0965,11.711 53.4765,11.873 L55.8525,19.784 C55.8795,19.946 55.7715,20 55.6365,20 Z M52.5855,3.827 L50.6415,3.827 L50.6415,9.173 L52.5855,9.173 C52.6935,9.173 52.7205,9.146 52.7205,9.038 L52.7205,3.962 C52.7205,3.854 52.6935,3.827 52.5855,3.827 Z M60.2805,20.135 C58.1205,20.135 57.4995,19.163 57.4995,17.543 L57.4995,3.611 C57.4995,1.937 58.2285,0.965 60.2265,0.965 L62.9805,0.965 C64.9785,0.965 65.7075,1.937 65.7075,3.584 L65.7075,17.489 C65.7075,19.163 65.1135,20.135 63.0075,20.135 L60.2805,20.135 Z M62.8455,3.827 C62.8455,3.719 62.8185,3.692 62.7105,3.692 L60.4965,3.692 C60.3885,3.692 60.3615,3.719 60.3615,3.827 L60.3615,17.273 C60.3615,17.381 60.3885,17.408 60.4965,17.408 L62.7105,17.408 C62.8185,17.408 62.8455,17.381 62.8455,17.273 L62.8455,3.827 Z M73.1055,20 L68.0835,20 C67.9215,20 67.8675,19.865 67.8675,19.784 L67.8675,1.316 C67.8675,1.181 67.9485,1.1 68.0835,1.1 L73.1055,1.1 C73.2135,1.1 73.3215,1.181 73.3215,1.316 L73.3215,3.611 C73.3215,3.746 73.2135,3.8 73.1055,3.8 L70.7295,3.8 L70.7295,9.038 L73.1055,9.038 C73.2135,9.038 73.3215,9.119 73.3215,9.254 L73.3215,11.549 C73.3215,11.711 73.2135,11.765 73.1055,11.765 L70.7295,11.765 L70.7295,17.273 L73.1055,17.273 C73.2135,17.273 73.3215,17.354 73.3215,17.462 L73.3215,19.784 C73.3215,19.946 73.2135,20 73.1055,20 Z M82.1775,20 L79.7475,20 C79.5855,20 79.5315,19.865 79.5315,19.784 L79.5315,1.316 C79.5315,1.181 79.6125,1.1 79.7475,1.1 L82.1775,1.1 C82.3125,1.1 82.3935,1.181 82.3935,1.316 L82.3935,19.784 C82.3935,19.946 82.3125,20 82.1775,20 Z M84.4185,9.308 L84.4185,3.611 C84.4185,1.937 85.1475,0.965 87.1455,0.965 L89.8995,0.965 C91.8975,0.965 92.6265,1.937 92.6265,3.584 L92.6265,6.095 C92.6265,6.23 92.5455,6.284 92.4105,6.284 L89.9805,6.284 C89.8725,6.284 89.7645,6.23 89.7645,6.095 L89.7645,3.827 C89.7645,3.719 89.7375,3.692 89.6295,3.692 L87.4155,3.692 C87.3075,3.692 87.2805,3.719 87.2805,3.827 L87.2805,9.038 C87.2805,9.146 87.3075,9.173 87.4155,9.173 L89.8995,9.173 C92.0325,9.173 92.6265,10.145 92.6265,11.765 L92.6265,17.489 C92.6265,19.163 92.0325,20.135 89.9265,20.135 L87.1995,20.135 C85.0395,20.135 84.4185,19.163 84.4185,17.543 L84.4185,14.762 C84.4185,14.627 84.4995,14.573 84.6345,14.573 L87.0645,14.573 C87.1725,14.573 87.2805,14.627 87.2805,14.762 L87.2805,17.273 C87.2805,17.381 87.3075,17.408 87.4155,17.408 L89.6295,17.408 C89.7375,17.408 89.7645,17.381 89.7645,17.273 L89.7645,12.035 C89.7645,11.927 89.7375,11.9 89.6295,11.9 L87.1455,11.9 C85.2015,11.9 84.4185,11.522 84.4185,9.308 Z M100.1055,20 L94.8675,20 C94.7055,20 94.6515,19.865 94.6515,19.784 L94.6515,1.316 C94.6515,1.181 94.7325,1.1 94.8675,1.1 L97.2975,1.1 C97.4325,1.1 97.5135,1.181 97.5135,1.316 L97.5135,17.273 L100.1055,17.273 C100.2405,17.273 100.3215,17.381 100.3215,17.489 L100.3215,19.784 C100.3215,19.946 100.2405,20 100.1055,20 Z M103.7505,1.1 L106.5315,1.1 C106.6935,1.1 106.7475,1.235 106.7475,1.316 L109.7985,19.784 C109.7985,19.919 109.7175,20 109.5825,20 L107.0445,20 C106.9365,20 106.8285,19.919 106.8285,19.784 L106.2075,15.275 L103.9665,15.275 L103.2915,19.784 C103.2915,19.919 103.2105,20 103.0755,20 L100.5375,20 C100.4025,20 100.3215,19.919 100.3215,19.784 L103.5345,1.316 C103.5345,1.235 103.5885,1.1 103.7505,1.1 Z M105.1545,7.364 L104.3715,12.575 L105.8565,12.575 L105.1545,7.364 Z M119.0055,20 L116.5755,20 C116.4135,20 116.3595,19.865 116.3595,19.784 L113.8215,10.793 L113.8215,19.784 C113.8215,19.946 113.7405,20 113.6055,20 L111.2295,20 C111.0675,20 111.0135,19.865 111.0135,19.784 L111.0135,1.316 C111.0135,1.181 111.0945,1.1 111.2295,1.1 L113.6595,1.1 C113.7945,1.1 113.8755,1.181 113.8755,1.316 L116.4135,10.307 L116.4135,1.316 C116.4135,1.181 116.4945,1.1 116.6295,1.1 L119.0055,1.1 C119.1135,1.1 119.2215,1.181 119.2215,1.316 L119.2215,19.784 C119.2215,19.946 119.1135,20 119.0055,20 Z M121.8675,20 C121.7055,20 121.6515,19.865 121.6515,19.784 L121.6515,1.316 C121.6515,1.181 121.7325,1.1 121.8675,1.1 L127.1325,1.1 C129.1305,1.1 129.8595,2.072 129.8595,3.719 L129.8595,17.354 C129.8595,19.028 129.2655,20 127.1595,20 L121.8675,20 Z M126.8625,3.827 L124.5135,3.827 L124.5135,17.273 L126.8625,17.273 C126.9705,17.273 126.9975,17.246 126.9975,17.138 L126.9975,3.962 C126.9975,3.854 126.9705,3.827 126.8625,3.827 Z M131.6145,9.308 L131.6145,3.611 C131.6145,1.937 132.3435,0.965 134.3415,0.965 L137.0955,0.965 C139.0935,0.965 139.8225,1.937 139.8225,3.584 L139.8225,6.095 C139.8225,6.23 139.7415,6.284 139.6065,6.284 L137.1765,6.284 C137.0685,6.284 136.9605,6.23 136.9605,6.095 L136.9605,3.827 C136.9605,3.719 136.9335,3.692 136.8255,3.692 L134.6115,3.692 C134.5035,3.692 134.4765,3.719 134.4765,3.827 L134.4765,9.038 C134.4765,9.146 134.5035,9.173 134.6115,9.173 L137.0955,9.173 C139.2285,9.173 139.8225,10.145 139.8225,11.765 L139.8225,17.489 C139.8225,19.163 139.2285,20.135 137.1225,20.135 L134.3955,20.135 C132.2355,20.135 131.6145,19.163 131.6145,17.543 L131.6145,14.762 C131.6145,14.627 131.6955,14.573 131.8305,14.573 L134.2605,14.573 C134.3685,14.573 134.4765,14.627 134.4765,14.762 L134.4765,17.273 C134.4765,17.381 134.5035,17.408 134.6115,17.408 L136.8255,17.408 C136.9335,17.408 136.9605,17.381 136.9605,17.273 L136.9605,12.035 C136.9605,11.927 136.9335,11.9 136.8255,11.9 L134.3415,11.9 C132.3975,11.9 131.6145,11.522 131.6145,9.308 Z" id="the-Faroe-Islands"></path>
            </g>
        </g>
    </g>
</svg>